<?xml version="1.0" encoding="UTF-8" standalone="no"?><svg xmlns="http://www.w3.org/2000/svg" xmlns:xlink="http://www.w3.org/1999/xlink" contentScriptType="application/ecmascript" contentStyleType="text/css" height="556px" preserveAspectRatio="none" style="width:637px;height:556px;" version="1.1" viewBox="0 0 637 556" width="637px" zoomAndPan="magnify"><defs/><g><!--MD5=[f9382d7b57390014bafc7fd5af4142f6]
cluster Deputy--><rect fill="#FFFFFF" height="440" style="stroke:#000000;stroke-width:1.5;" width="249" x="105" y="7"/><text fill="#000000" font-family="sans-serif" font-size="14" font-weight="bold" lengthAdjust="spacing" textLength="49" x="205" y="23.5332">Deputy</text><!--MD5=[7a0f716379b098c694ac748444cc5a1d]
cluster Openshift--><rect fill="#FFFFFF" height="131" style="stroke:#000000;stroke-width:1.5;" width="237" x="394" y="19"/><text fill="#000000" font-family="sans-serif" font-size="14" font-weight="bold" lengthAdjust="spacing" textLength="69" x="478" y="35.5332">Openshift</text><!--MD5=[1c2c261691e882899e267d0503362c3b]
cluster Artifactory--><rect fill="#FFFFFF" height="171" style="stroke:#000000;stroke-width:1.5;" width="222" x="401.5" y="195"/><text fill="#000000" font-family="sans-serif" font-size="14" font-weight="bold" lengthAdjust="spacing" textLength="72" x="476.5" y="211.5332">Artifactory</text><!--MD5=[5e46b9f21bc2c74d9ae31e1c9a72c9da]
cluster Lifetime--><rect fill="#FFFFFF" height="123" style="stroke:#000000;stroke-width:1.5;" width="203" x="411" y="414"/><text fill="#000000" font-family="sans-serif" font-size="14" font-weight="bold" lengthAdjust="spacing" textLength="56" x="484.5" y="430.5332">Lifetime</text><ellipse cx="229.2514" cy="91.8503" fill="#FFFFFF" rx="94.7514" ry="21.3503" style="stroke:#383838;stroke-width:1.5;"/><text fill="#000000" font-family="sans-serif" font-size="14" lengthAdjust="spacing" textLength="149" x="154.7514" y="95.5788">Anwendungen erfassen</text><ellipse cx="229.63" cy="170.026" fill="#FFFFFF" rx="95.63" ry="21.526" style="stroke:#383838;stroke-width:1.5;"/><text fill="#000000" font-family="sans-serif" font-size="14" lengthAdjust="spacing" textLength="151" x="154.13" y="173.7545">Komponenten zuordnen</text><ellipse cx="229.5042" cy="249.0008" fill="#FFFFFF" rx="100.5042" ry="22.5008" style="stroke:#383838;stroke-width:1.5;"/><text fill="#000000" font-family="sans-serif" font-size="14" lengthAdjust="spacing" textLength="162" x="148.5042" y="252.7293">Aktuellen Zustand sichten</text><ellipse cx="229.2514" cy="327.8503" fill="#FFFFFF" rx="94.7514" ry="21.3503" style="stroke:#383838;stroke-width:1.5;"/><text fill="#000000" font-family="sans-serif" font-size="14" lengthAdjust="spacing" textLength="149" x="154.7514" y="331.5788">Anwendungen kopieren</text><ellipse cx="229.5873" cy="404.1175" fill="#FFFFFF" rx="83.5873" ry="19.1175" style="stroke:#383838;stroke-width:1.5;"/><text fill="#000000" font-family="sans-serif" font-size="14" lengthAdjust="spacing" textLength="123" x="168.0873" y="407.846">Freigabe anfordern</text><ellipse cx="512.313" cy="103.7626" fill="#FFFFFF" rx="94.313" ry="21.2626" style="stroke:#383838;stroke-width:1.5;"/><text fill="#000000" font-family="sans-serif" font-size="14" lengthAdjust="spacing" textLength="148" x="438.313" y="107.4911">Komponente ausführen</text><ellipse cx="512.4661" cy="250.7932" fill="#FFFFFF" rx="86.9661" ry="19.7932" style="stroke:#383838;stroke-width:1.5;"/><text fill="#000000" font-family="sans-serif" font-size="14" lengthAdjust="spacing" textLength="131" x="446.9661" y="254.5217">Artefakte archivieren</text><ellipse cx="512.6904" cy="327.9381" fill="#FFFFFF" rx="95.1904" ry="21.4381" style="stroke:#383838;stroke-width:1.5;"/><text fill="#000000" font-family="sans-serif" font-size="14" lengthAdjust="spacing" textLength="150" x="437.6904" y="331.6666">Artefakte herunterladen</text><ellipse cx="512.5069" cy="494.9014" fill="#FFFFFF" rx="77.5069" ry="17.9014" style="stroke:#383838;stroke-width:1.5;"/><text fill="#000000" font-family="sans-serif" font-size="14" lengthAdjust="spacing" textLength="108" x="456.3567" y="499.216">Freigabe erteilen</text><!--MD5=[3d99d59a27ec55cd9b0b1490801f78bc]
entity dev--><ellipse cx="37.5" cy="218.5" fill="#F8F8F8" rx="8" ry="8" style="stroke:#383838;stroke-width:1.5;"/><path d="M37.5,226.5 L37.5,253.5 M24.5,234.5 L50.5,234.5 M37.5,253.5 L24.5,268.5 M37.5,253.5 L50.5,268.5 " fill="none" style="stroke:#383838;stroke-width:1.5;"/><text fill="#000000" font-family="sans-serif" font-size="14" lengthAdjust="spacing" textLength="63" x="6" y="285.5332">Entwickler</text><!--MD5=[109725bb0ebac319695aaff0c635708f]
entity ba--><ellipse cx="229.5" cy="480.5" fill="#F8F8F8" rx="8" ry="8" style="stroke:#383838;stroke-width:1.5;"/><path d="M229.5,488.5 L229.5,515.5 M216.5,496.5 L242.5,496.5 M229.5,515.5 L216.5,530.5 M229.5,515.5 L242.5,530.5 " fill="none" style="stroke:#383838;stroke-width:1.5;"/><text fill="#000000" font-family="sans-serif" font-size="14" lengthAdjust="spacing" textLength="107" x="176" y="547.5332">Business Analyst</text><!--MD5=[3f652b4b907dcc6a218a31d1d5ade1c9]
link dev to create_app--><path d="M46.28,208.97 C53.28,183.26 66.12,151.05 89,131 C103.52,118.28 121.88,109.68 140.47,103.87 " fill="none" id="dev-to-create_app" style="stroke:#383838;stroke-width:1.0;"/><polygon fill="#383838" points="145.72,102.31,135.9519,101.0514,140.9289,103.7402,138.2402,108.7172,145.72,102.31" style="stroke:#383838;stroke-width:1.0;"/><!--MD5=[d5db3461c6186de49e86e709679cfb9c]
link dev to assign_component--><path d="M69.24,221.55 C75.48,216.89 82.22,212.45 89,209 C108.6,199.01 131.1,191.3 152.22,185.47 " fill="none" id="dev-to-assign_component" style="stroke:#383838;stroke-width:1.0;"/><polygon fill="#383838" points="157.27,184.1,147.5396,182.5773,152.4419,185.3999,149.6194,190.3022,157.27,184.1" style="stroke:#383838;stroke-width:1.0;"/><!--MD5=[7318fd66e8a978f423946d63ef965467]
link dev to review--><path d="M69.03,249 C84.31,249 103.8,249 123.87,249 " fill="none" id="dev-to-review" style="stroke:#383838;stroke-width:1.0;"/><polygon fill="#383838" points="128.98,249,119.98,245,123.98,249,119.98,253,128.98,249" style="stroke:#383838;stroke-width:1.0;"/><!--MD5=[6f6e8bc5db3ef2ede31d79f9ae448d54]
link dev to copy--><path d="M69.24,276.45 C75.48,281.11 82.22,285.55 89,289 C108.6,298.99 131.1,306.7 152.22,312.53 " fill="none" id="dev-to-copy" style="stroke:#383838;stroke-width:1.0;"/><polygon fill="#383838" points="157.27,313.9,149.6194,307.6978,152.4419,312.6001,147.5396,315.4227,157.27,313.9" style="stroke:#383838;stroke-width:1.0;"/><!--MD5=[204e3d15c6a7b5b66ad6b8cc1b539eef]
link dev to request_signoff--><path d="M46.2,289.13 C53.16,314.88 65.99,347.11 89,367 C105.32,381.11 126.44,389.91 147.29,395.38 " fill="none" id="dev-to-request_signoff" style="stroke:#383838;stroke-width:1.0;"/><polygon fill="#383838" points="152.29,396.64,144.5289,390.5766,147.4393,395.4273,142.5886,398.3377,152.29,396.64" style="stroke:#383838;stroke-width:1.0;"/><!--MD5=[ca061de30a0ea24cba32ca581ef30dbf]
link copy to run_component--><path d="M318.12,320.14 C337.8,314.27 356.75,304.64 370,289 C380.69,276.38 370.18,229.58 378,215 C398.78,176.27 439.21,145.64 470.15,126.46 " fill="none" id="copy-to-run_component" style="stroke:#383838;stroke-width:1.0;"/><polygon fill="#383838" points="474.65,123.71,464.8843,124.9873,470.3829,126.3161,469.0541,131.8147,474.65,123.71" style="stroke:#383838;stroke-width:1.0;"/><!--MD5=[5fa8585d9552b4ee7ceef0bd986e4fdf]
link copy to load_artifact--><path d="M324.85,328 C352.92,328 383.75,328 412.13,328 " fill="none" id="copy-to-load_artifact" style="stroke:#383838;stroke-width:1.0;"/><polygon fill="#383838" points="417.4,328,408.4,324,412.4,328,408.4,332,417.4,328" style="stroke:#383838;stroke-width:1.0;"/><!--MD5=[4a6c4b748b41e8e841d742549d8a448f]
link ba to signoff--><path d="M283.02,508.01 C324.87,505.63 384.13,502.25 431.81,499.54 " fill="none" id="ba-to-signoff" style="stroke:#383838;stroke-width:1.0;"/><polygon fill="#383838" points="436.97,499.24,427.7565,495.76,431.9781,499.5252,428.2129,503.7469,436.97,499.24" style="stroke:#383838;stroke-width:1.0;"/><!--MD5=[4b21c7c9cc620ca19c9fccbda8d96b9e]
link Deputy to Openshift--><!--MD5=[98b18fdfdba15f1e17161c5ec02e6347]
link request_signoff to Lifetime--><path d="M301.77,413.64 C322.2575,416.41 345.3631,419.5344 368.5575,422.6709 C380.1547,424.2392 391.7741,425.8105 403.0995,427.3421 C404.5151,427.5336 405.9262,427.7244 407.3321,427.9146 C408.035,428.0096 408.7366,428.1045 409.4369,428.1992 C409.787,428.2466 410.1368,428.2939 410.4862,428.3411 " fill="none" id="request_signoff-to-Lifetime" style="stroke:#383838;stroke-width:1.0;"/><polygon fill="#383838" points="410.4862,428.3411,402.1035,423.171,405.5313,427.671,401.0313,431.0989,410.4862,428.3411" style="stroke:#383838;stroke-width:1.0;"/><!--MD5=[32f843a2b797ee97c49298c31a59c8d7]
@startuml Anwendungsfälle

left to right direction

skinparam Shadowing false
skinparam Monochrome true

skinparam UsecaseBackgroundColor white
skinparam RectangleBackgroundColor white
skinparam RectangleFontStyle bold

actor "Entwickler" as dev
actor "Business Analyst" as ba

rectangle "Deputy" {
    usecase "Anwendungen erfassen" as create_app
    usecase "Komponenten zuordnen" as assign_component
    usecase "Aktuellen Zustand sichten" as review
    usecase "Anwendungen kopieren" as copy
    usecase "Freigabe anfordern" as request_signoff
}

rectangle "Openshift" {
    usecase "Komponente ausführen" as run_component
}

rectangle "Artifactory" {
    usecase "Artefakte archivieren" as archive_artifact
    usecase "Artefakte herunterladen" as load_artifact
}

rectangle "Lifetime" {
    usecase "Freigabe erteilen" as signoff
}

dev - -> create_app
dev - -> assign_component
dev - -> review
dev - -> copy
dev - -> request_signoff

copy - -> run_component
copy - -> load_artifact

ba - -> signoff

Deputy -[hidden]- Openshift
request_signoff - -> Lifetime

@enduml

PlantUML version 1.2021.00(Sun Jan 10 11:25:05 CET 2021)
(GPL source distribution)
Java Runtime: OpenJDK Runtime Environment
JVM: OpenJDK 64-Bit Server VM
Default Encoding: Cp1252
Language: de
Country: DE
--></g></svg>